<svg xmlns="http://www.w3.org/2000/svg" fill="none" viewBox="0 0 16 16">
  <path data-follow-fill="currentColor" fill="currentColor"
    d="M2.847 5.487c1.25-1.036 3.067-2.154 5.14-2.154 2.073 0 3.89 1.118 5.14 2.154a14.419 14.419 0 0 1 1.908 1.92c.048.06.085.106.11.14l.03.038.009.01.002.004.001.002-.534.399c.535.399.534.399.534.4l-.003.004-.009.011-.03.039a12.497 12.497 0 0 1-.52.617 14.42 14.42 0 0 1-1.499 1.442c-1.25 1.036-3.066 2.154-5.14 2.154-2.072 0-3.89-1.118-5.139-2.154a14.432 14.432 0 0 1-1.91-1.92 8.291 8.291 0 0 1-.11-.14l-.029-.038-.008-.01L.787 8.4H.785L1.32 8a97.437 97.437 0 0 1-.534-.399l.001-.002.003-.003.008-.011.03-.039a12.568 12.568 0 0 1 .52-.617 14.43 14.43 0 0 1 1.5-1.442ZM1.32 8l-.534-.399a.667.667 0 0 0 0 .798L1.32 8Zm.861 0 .159.18c.321.356.786.832 1.358 1.307 1.164.964 2.68 1.846 4.289 1.846 1.609 0 3.125-.882 4.288-1.846A13.1 13.1 0 0 0 13.792 8l-.158-.18a13.1 13.1 0 0 0-1.359-1.307c-1.163-.964-2.68-1.846-4.288-1.846-1.61 0-3.125.882-4.289 1.846A13.098 13.098 0 0 0 2.181 8Zm12.472 0 .535.399a.667.667 0 0 0 0-.798L14.653 8Z"
    clip-rule="evenodd" fill-rule="evenodd" />
  <path data-follow-fill="currentColor" fill="currentColor"
    d="M14.653 8s-2.985 4-6.667 4C4.305 12 1.32 8 1.32 8s2.985-4 6.666-4c3.682 0 6.667 4 6.667 4Zm-9 0a2.333 2.333 0 1 1 4.667 0 2.333 2.333 0 0 1-4.667 0Z"
    clip-rule="evenodd" fill-rule="evenodd" />
</svg>